<?xml version="1.0" standalone="no"?><!DOCTYPE svg PUBLIC "-//W3C//DTD SVG 1.1//EN" "http://www.w3.org/Graphics/SVG/1.1/DTD/svg11.dtd"><svg class="icon" width="200px" height="200.00px" viewBox="0 0 1024 1024" version="1.1" xmlns="http://www.w3.org/2000/svg"><path d="M998.416 857.068c-8.508 11.688-6.004 28.072-16.56 38.896-11.46-6.08-2.732-14.416-0.232-19.236 6.188-11.936 5.34-24.072 5.328-36.432 0-6.288 1.056-13.708-6.528-16.296-8.544-2.916-12.172 4.196-16.264 9.896-40.3 56.084-92.828 96.184-157.332 120.876-29.4 11.256-29.26 11.608-7.372 33.196 0.38 0.376 0.296 1.216 0.428 1.832-24.084-2.928-44.064-13.148-58.588-33.032 9.532-6.432 16.392-15.276 29.132-18.708 73.872-19.92 131.996-62.728 175.972-125.284 9.204-13.084 7.692-20.612-8-24.704-3.056-0.796-5.932-2.248-8.956-3.212-3.784-1.208-7.816-2.564-6.252-7.556 1.552-4.972 5.712-3.912 9.44-2.664 6.14 2.052 12.328 4.612 16.5-3.248 12.988 2.316 22.996 10.548 33.86 17.076l15.42 26.58 0.004 42.02z" fill="#79AB82" /><path d="M50.8 830.456c-14.404-13.02-17.128-31.528-22.564-48.664-1.888-5.952-2.108-12.424-7.876-16.416v-42.028l7.016-11.708c10.9 0.792 19.408-4.416 27.412-10.896 2.52-0.032 5.04-0.064 7.564-0.084 1.824 10.14-4.068 21.356 4.24 30.596-11.46 14.812-7.304 32.164-7.916 48.74-13.816 15.076-12.472 32.512-7.876 50.46z" fill="#B7EFBD" /><path d="M295.624 230.788c-1.328-92.684 73.996-181.368 168.54-199.048 18.916-3.536 37.752-4.74 56.844-3.232-0.18 13.26 7.868 20.672 18.628 26.112 6.788 3.432 14.188 6.164 18.176 13.264 21.096 37.48 37.716 76.024 27.908 120.664-56.068-2.608-111.668-11.376-168.368-4.7-45.336 5.332-86.616 17.064-121.728 46.94z m230.94-100.872c3.968-15.904-0.164-22.508-19.38-23.072-21.384-0.624-19.428 10.188-19.784 24.264-0.376 14.536 0.58 22.68 19.524 22.588 19.024-0.076 23.636-6.672 19.64-23.78z m-98.608 0.768c3.076-15.128 1.4-23.672-18.864-23.864-20.5-0.196-20.224 9.2-19.984 23.776 0.22 13.52-0.88 23.528 18.94 23.08 18.172-0.424 24.428-5.532 19.908-22.992z" fill="#FCE59D" /><path d="M982.996 788.46c-10.864-6.528-20.872-14.756-33.86-17.064-16.448-10.596-36.584-4.052-53.712-11.496-15.592-8.588-33.388-6.152-49.936-9.92 13.328-41.26 28.752-79.948 62.092-111.652 28.512-27.112 49.98-62.028 40.588-106.108 0.508-21.644 4.176-43.456-3.7-64.62 3.552-8.276-5.824-14.988-2.792-23.2 8.544 1.496 12.84 6.712 14.744 15.084 7.324 32.232 12.164 64.052 1.836 97.02-6.664 21.276 5.06 42.052 8.08 62.996 8.112 56.124 17.964 111.948 16.66 168.96z" fill="#E4F8E6" /><path d="M944.472 467.596c7.876 21.164 4.208 42.98 3.7 64.62l-5.952 15c-8 0.008-12.108 6.152-17.236 10.788-37.908 34.32-81.8 47.084-131.8 34.984-76.772-18.588-131.024-107.936-95.912-189.6 14.972-34.828 39.968-58.072 71.128-76.104 7.092-4.104 3.596-5.02 1.132-8.108 33.236-1.12 64.588 4.468 91.572 25.672-5.524 7.288-11.728-0.232-17.148 0.836-9.776 1.936-23.308-8.532-28.952 8.048-19.692-2.624-37.168 0.76-49.484 18.2-7.9-1.268-12.824 3.392-18.244 8.204-27.384 24.32-43.592 81.688-17.476 127.904 23.016 40.728 65.544 66.524 114.572 57.84 38.796-6.872 76.412-28.276 89.42-80.212 1.676-6.708 0.564-15.98 10.68-18.072z" fill="#E7B858" /><path d="M815.004 353.736c5.644-16.58 19.176-6.108 28.952-8.048 5.42-1.068 11.624 6.452 17.148-0.836 29.084 10.836 47.144 33.86 62.636 58.804 7.748 12.48 12.072 27.092 17.936 40.74-3.032 8.216 6.344 14.928 2.792 23.204-10.116 2.092-9.004 11.364-10.68 18.072-13.012 51.936-50.624 73.34-89.42 80.212-49.028 8.684-91.556-17.112-114.572-57.84-26.116-46.212-9.908-103.584 17.476-127.904 5.416-4.812 10.344-9.476 18.244-8.204-9.048 10.376 2.22 17.432 4.248 26-1.528 3.416-2.356 7.448-4.712 10.152-18.772 21.528-18.244 46.792-12.184 71.872 6.872 28.424 38.88 53.6 67.692 56.152 30.052 2.66 64.868-17.224 77.936-44.512 14.032-29.3 8.88-66-12.28-88.72-5.024-5.392-10.368-9.388-18.248-7.736-12.552-20.324-31.004-33.116-52.964-41.408z" fill="#F3CD7F" /><path d="M769.536 319.176c2.464 3.084 5.96 4.004-1.132 8.108-31.16 18.032-56.156 41.28-71.128 76.104-35.112 81.668 19.136 171.012 95.912 189.6 50 12.096 93.896-0.664 131.8-34.984 5.124-4.636 9.236-10.78 17.228-10.788-3.392 15.584-7.264 30.94-19.348 42.564l-4.548 5.54 0.592 0.808-0.408 0.924c-7.812-0.612-14.928 1.376-21.792 5.132-50.408 27.564-141.804 17.3-180.392-28.988-4.344-5.2-8.952-11.036-17.168-10.228-4.512-11.668-9.016-23.344-13.524-35.012-7.86-22.52-7.236-47.436-19.396-68.748l0.416-15.008c4.5-0.544 6.528-3.188 6.776-7.616 2-35.796 17.108-65.44 42.636-90.068 4.844-4.676 8.056-9.72 7.112-16.7l1.688-0.336 1.704 0.136 4.512-2.596 36.204-8.752a2.376 2.376 0 0 1 2.256 0.908z" fill="#D89E35" /><path d="M295.624 230.788c35.112-29.876 76.396-41.604 121.728-46.936 56.696-6.672 112.3 2.092 168.368 4.7 0.292 1.12 0.52 2.248 0.692 3.396-7.024 6.128-10.036 14.376-12.236 23.048l-45.584-0.232c-15.084-7.176-31.06-1.98-46.576-3.304-13.928-1.184-25.844 3.34-39.08 9.096-33.564 14.6-69.412 23.744-106.412 12.596-9.34-2.816-15.408 0.372-22.952 3.988-12.656 6.064-18.992 20.632-33.436 23.92 0.232-12.616 11.54-19.56 15.488-30.272z" fill="#B5EABB" /><path d="M280.136 261.056c14.444-3.288 20.78-17.856 33.436-23.92 7.544-3.616 13.612-6.804 22.952-3.988 37 11.148 72.844 2.004 106.412-12.596 13.236-5.756 25.152-10.28 39.08-9.096 15.512 1.328 31.488-3.872 46.576 3.312-17.208 17.536-38.924 27.032-61.788 34.296-4.74 1.508-10.388 0.876-10.72 7.96-50.084 4.276-99.056 13.212-145.048 34.612-10.672-10.552-24.62-10.088-38.064-11.332 2.384-6.42 4.776-12.832 7.164-19.248z" fill="#9FD5A7" /><path d="M767.284 318.272l-36.216 8.744c-1.492 0.868-2.996 1.736-4.5 2.6l-1.704-0.136s-1.688 0.336-1.684 0.344l0.404-0.616c-32.2-23.336-68.568-36.884-107.008-45.572-6.648-3.468-13.292-6.944-19.932-10.412 6.196-7.66 15.996-9.276 23.82-14.2 11.592-7.296 23.228-14.548 26.404-29.4l23.024 1.74c5.5 8.116 14.852 7.952 22.884 10.628 9.92 8.892 23.42 12.212 33.124 21.752 3.432 3.376 9.98 7.616 13.688-1.312 13.612 16.444 23.424 34.764 27.696 55.84z" fill="#669470" /><path d="M586.416 191.94a33.76 33.76 0 0 0-0.696-3.392c9.808-44.64-6.808-83.184-27.908-120.664-3.988-7.104-11.388-9.832-18.176-13.264-10.76-5.44-18.808-12.852-18.628-26.112 28.744 0.532 55.46 8.58 80.832 21.672-6.436 4.236-2.572 8.932-0.2 13.052 19.224 33.376 25.752 71.604 40.696 106.64 4.332 10.172 6.008 21.852 4.68 33.392-20.076-4.456-39.584-11.92-60.6-11.324z" fill="#F3CD7F" /><path d="M100.856 532.28c0.16-4.176-0.604-8.632 3.544-11.584l4.412 0.76c10.448 20.684 21.356 41.02 41 54.808 4.344 32.764 6.936 65.876 18.912 97.16l-33.652 0.752-26.568-0.536c-1.16-19.164-6.516-39.372 1.048-57.224 12.928-30.512 5.132-57.244-8.696-84.136z" fill="#B5EABB" /><path d="M647.016 203.26c1.328-11.536-0.348-23.216-4.68-33.388-14.944-35.036-21.472-73.264-40.696-106.64-2.372-4.12-6.24-8.82 0.2-13.052 24.68 11.772 48.436 24.776 64.408 48.192 7.2 37.384 11.216 74.864 3.58 112.72a25248.88 25248.88 0 0 1-22.812-7.832z" fill="#E7B858" /><path d="M100.856 532.28c13.828 26.892 21.624 53.62 8.696 84.14-7.564 17.852-2.204 38.06-1.048 57.224-10.46-0.016-20.844 0.548-30.884 3.884l-18.444 0.776-0.84-1.008c8.356-42.276 22.024-83.116 33.816-124.456 2.036-7.14 2.628-15.068 8.704-20.56z" fill="#E4F8E6" /><path d="M127.784 410.176c22.032-42.916 59.252-67.04 102.912-83.224l-0.24 25.12c-3.052 1.924-3.94 4.88-3.972 8.256l0.048-0.14c-13.568 8.36-19.244 23.584-29.932 34.444-23.156 4.22-43.58 20.536-68.816 15.544z" fill="#FCE59D" /><path d="M149.82 576.276c-19.652-13.796-30.556-34.132-41.004-54.82l-1.14-11.992c0.992-4.176 1.564-8.268-2.292-11.48l-0.34-7.472 53.76-0.24c-4.856 28.48-2.052 57.752-8.984 86.004z" fill="#C57A08" /><path d="M669.824 211.088c7.636-37.852 3.62-75.332-3.58-112.716 21.328 22.676 39.076 47.416 45.356 78.76-10.06 1.816-9.472 10.992-10.476 17.508-1.584 10.312-0.372 21.036-4.08 31.14-1.388 0.2-2.772 0.396-4.16 0.588-4.228-7.428-11.36-9.864-19.152-11.168l-3.908-4.112z" fill="#D89E35" /><path d="M127.784 410.176c25.236 4.992 45.66-11.324 68.808-15.536-0.216 2.276-0.424 4.548-0.636 6.832-12.984 11.5-15.196 28.556-22.248 43.116l-0.96-0.372c-21.104 0.844-41.916 5.94-63.188 4.332 2.468-14.504 9.06-27.048 18.224-38.372z" fill="#F3CD7F" /><path d="M109.564 448.552c21.272 1.604 42.084-3.492 63.188-4.332-2.916 10.92-7.748 21.416-7.5 33.072-2.148 4.34-4.296 8.664-6.444 12.992-17.924 0.076-35.844 0.16-53.764 0.24-3.032-14.492 0.308-28.276 4.52-41.972z" fill="#E7B858" /><path d="M272.968 280.3c13.444 1.244 27.392 0.78 38.06 11.332-17.916 8.8-31.824 24.032-50.528 31.572l-0.288-7.196c2.044-12.696 5.392-24.924 12.756-35.708z" fill="#88BE91" /><path d="M697.048 225.784c3.708-10.104 2.496-20.832 4.08-31.14 1.004-6.516 0.416-15.692 10.476-17.508 5.648 20.196 11.16 40.412 7.992 61.744l-22.548-13.096z" fill="#C57A08" /><path d="M697.048 225.784l22.548 13.092c1.948 11.856 16.412 13.096 19.992 23.564-3.708 8.92-10.252 4.684-13.688 1.308-9.704-9.536-23.204-12.856-33.124-21.752 0.036-5.208 0.08-10.416 0.112-15.624l4.16-0.588z" fill="#79AB82" /><path d="M260.212 316.008l0.292 7.184-26.46 28.82a8.612 8.612 0 0 1-3.588 0.06l0.24-25.116c9.84-3.644 19.676-7.296 29.516-10.948z" fill="#F3CD7F" /><path d="M54.784 700.748c-8.004 6.476-16.512 11.688-27.412 10.896 2.628-16.156 13.74-24.828 27.5-31.164l-0.132 1.424c2.496 6.272-7.004 12.572 0.044 18.844z" fill="#B5EABB" /><path d="M107.672 509.468l1.14 11.992-4.412-0.756 0.372-11.94c0.968 0.22 1.932 0.456 2.9 0.704z" fill="#E4F8E6" /><path d="M107.672 509.468a127.408 127.408 0 0 0-2.9-0.708l0.604-10.768c3.86 3.208 3.288 7.3 2.296 11.476z" fill="#E7B858" /><path d="M54.876 680.476l3.464-3.176 0.832 1c-1.48 1.196-2.956 2.4-4.428 3.6l0.132-1.424z" fill="#E4F8E6" /><path d="M356.38 914.952c-42.4-11.86-73.188-39.436-99.3-73.34-3-6.388-7.704-11.112-13.964-14.308-2.604-19.492-16.252-34.964-19.828-54.12 5.028-0.024 8.512 2.52 10.512 6.904 14.776 32.352 41.808 53.048 71.444 69 67.496 36.316 137.088 57.428 210.44 14.348 4.888-2.876 9.784-5.956 14-9.7 5.632-5 12.404-10.152 9.508-19.2-2.72-8.52-10.516-10.356-18.124-11.708-29.844-5.292-59.892-9.62-89.448-16.168-9.004-1.996-23.5 1.492-25.384-14.516 98.332 1.636 196.212-0.484 290.316-34.464 0.188 20.112-12.188 34.488-23.972 48.208-35.884 41.744-83.868 62.272-136.144 74.52-20.172 4.728-41.392 6.848-60.336 14.564-33.796 13.768-68.448 15.244-103.764 13.544-7.024-0.344-14.068-4.464-15.956 6.436z" fill="#2E2E2E" /><path d="M356.38 914.952c1.888-10.904 8.932-6.78 15.964-6.44 35.316 1.7 69.968 0.228 103.764-13.544 18.944-7.716 40.164-9.836 60.336-14.564 52.276-12.248 100.26-32.776 136.144-74.52 11.784-13.72 24.16-28.092 23.972-48.208l61.172-30.724c0.636 3.66 1.264 7.32 1.904 10.988-11.624 2.328-20.628 8.12-25.472 19.368-6.596 9.544-8.096 20.864-11.088 31.68-7.86 28.36-6.268 57.98-11.632 86.672-109.084 71.932-226.496 75.808-348.42 42.584-2.348-0.628-4.44-2.172-6.644-3.292z" fill="#040404" /><path d="M895.424 759.884c17.124 7.464 37.26 0.916 53.712 11.516-4.172 7.852-10.36 5.288-16.5 3.24-3.732-1.248-7.892-2.308-9.44 2.664-1.564 4.992 2.468 6.348 6.252 7.556 3.024 0.96 5.904 2.416 8.956 3.212 15.692 4.088 17.204 11.62 8 24.704-43.976 62.56-102.1 105.364-175.972 125.284-12.744 3.428-19.6 12.272-29.132 18.708-5.72-3.704-9.236-8.968-10.936-15.508-2.216-22.308 4.384-40.52 24.4-52.472 17.92 15.048 35.148 13.728 48.116-4.58 5.02-7.08 8.044-15.572 11.976-23.416 8.848 1.064 16.74-2.796 22.82-7.808 19.348-15.924 39.656-30.592 54.76-51.56 13.128-18.204 24.172-21.812-8.808-29.828-0.688-0.172-0.968-2.008-1.672-3.588 3.424-4.24 11.776-1.084 13.468-8.124z" fill="#88BE91" /><path d="M799.892 989.792c-0.132-0.616-0.052-1.456-0.428-1.832-21.892-21.584-22.028-21.936 7.372-33.196 64.504-24.692 117.032-64.792 157.332-120.876 4.092-5.7 7.724-12.812 16.264-9.896 7.584 2.588 6.528 10.008 6.528 16.296 0.012 12.364 0.86 24.496-5.328 36.432-2.5 4.82-11.232 13.156 0.232 19.236l-1.532 3.436c-11.476 0.356-8.168 8.784-8.368 15.308l0.088-0.084c-8.388-0.056-8.24 5.62-7.752 11.524l0.076-0.068c-16.62 6.368-28.152 17.828-34.46 34.508 0 0 0.08-0.084 0.072-0.084-23.916 5.128-44.912 16.756-65.416 29.48-2.492 0.264-4.992 0.536-7.496 0.808-16.512-6.432-33.064-6.12-49.624-0.196-2.528-0.252-5.04-0.524-7.56-0.796z" fill="#669470" /><path d="M243.132 827.268c6.248 3.232 10.948 7.956 13.948 14.344-1.964 1.452-4.88 2.476-5.748 4.416-25.492 57.152-106.432 57.796-147.14 30.584 2.428-10.532-11.052-19.06-1.42-31.632 17.02-22.236 28.812-47.956 33.584-75.612 3.916-22.64 14.724-48.58 0.224-67.98-9.26-12.4-6.78-17.796-1.508-27.212l33.652-0.752c3.74 19.592 11.884 38.288 11.968 58.604 0.02 5.048 0.04 10.216-0.944 15.12-7.928 39.676-16.468 79.048-40.44 113.148-7.824 11.124-4.832 19.46 10.42 19.692 10.776 0.16 21.592 0.584 32.328-0.092 29.776-1.896 55.64-24.46 61.076-52.628z" fill="#79AB82" /><path d="M135.076 674.18c-5.272 9.416-7.752 14.812 1.508 27.212 14.5 19.404 3.688 45.34-0.224 67.98-4.772 27.656-16.564 53.38-33.584 75.612-9.632 12.576 3.848 21.1 1.42 31.632-12.136-3.572-21.984-10.54-30.044-20.18-4.056-14.352-5.964-28.312 3.496-41.816 2.684-3.844 2.732-9.544 3.988-14.388 14.412-0.24 19.656-8.428 19.288-21.848-0.22-8.1 0.044-16.212 0.084-24.324 16.304-3.276 10.848-16.42 10.816-25.964-0.108-33.752 6.416-31.728-30.456-31.348h-11.372l7.624-19.224c10.04-3.336 20.424-3.9 30.884-3.884l26.572 0.54z" fill="#88BE91" /><path d="M711.436 875.664c5.364-28.692 3.772-58.312 11.632-86.672 2.992-10.816 4.492-22.136 11.088-31.68 4.648 2.528 6.74 8.708 14.376 6.996 27.672-6.18 55.376-2.196 83.064 1.036 13.252 1.548 11.34 7.336 4.9 14.744-9.656 11.1-21.696 19.332-33.788 27.46-26.752-7.844-37.4-0.632-41.264 27.656-0.312 2.268-2.052 4.352-3.12 6.524-22.884 1.248-36.468 14.276-44.084 34.844l-1.56 0.024-1.244-0.932z" fill="#B5EABB" /><path d="M714.24 876.572c7.612-20.568 21.2-33.592 44.076-34.844-4.292 15.44-5.144 31.144-3.544 47.032-20.024 11.976-26.62 30.188-24.408 52.496-13.856-19.448-13.608-42.412-16.124-64.684zM81.636 800.236c-1.256 4.844-1.304 10.544-3.988 14.388-9.456 13.504-7.552 27.464-3.496 41.816-11.132-5.648-17.736-15.372-23.348-25.98-4.6-17.948-5.944-35.388 7.868-50.448 5.708 8.948 13.188 15.896 22.964 20.224z" fill="#9FD5A7" /><path d="M864.568 989.988c20.504-12.724 41.5-24.352 65.416-29.48-18.504 17.144-40.596 26.34-65.416 29.48zM807.444 990.6c16.564-5.924 33.112-6.24 49.624 0.196-16.564 5.38-33.108 5.54-49.624-0.196z" fill="#79AB82" /><path d="M929.912 960.588c6.308-16.68 17.84-28.14 34.46-34.508-7.888 15.092-19.384 26.588-34.46 34.508zM971.96 914.708c0.2-6.524-3.108-14.952 8.368-15.308-0.772 6.2-2.732 11.76-8.368 15.308z" fill="#79AB82" /><path d="M964.296 926.148c-0.484-5.904-0.632-11.58 7.752-11.524-0.564 5.204-3.084 9.088-7.752 11.524z" fill="#79AB82" /><path d="M81.636 800.236c-9.776-4.328-17.252-11.272-22.964-20.228 0.616-16.584-3.54-33.932 7.916-48.752l14.648-7.58c15.956 4.036 17.04 17.752 19.776 30.384-0.044 8.112-0.308 16.224-0.088 24.324 0.364 13.42-4.88 21.612-19.288 21.852z" fill="#E4F8E6" /><path d="M81.232 723.68l-14.648 7.58c-8.304-9.24-2.416-20.452-4.236-30.596 3.06-0.304 6.02-0.796 7.648-3.912l11.372-0.004c-0.04 8.976-0.092 17.96-0.136 26.932z" fill="#B5EABB" /><path d="M69.996 696.752c-1.628 3.112-4.588 3.604-7.648 3.912-2.524 0.024-5.044 0.056-7.564 0.084-7.048-6.268 2.452-12.572-0.044-18.844 1.476-1.204 2.948-2.408 4.428-3.6 6.156-0.252 12.304-0.512 18.448-0.772l-7.62 19.22z" fill="#9FD5A7" /><path d="M526.564 129.916c3.996 17.108-0.612 23.704-19.64 23.784-18.948 0.088-19.9-8.052-19.524-22.588 0.356-14.076-1.6-24.888 19.784-24.264 19.216 0.556 23.348 7.164 19.38 23.068zM427.956 130.684c4.516 17.46-1.74 22.572-19.904 22.988-19.824 0.452-18.72-9.556-18.94-23.08-0.24-14.576-0.516-23.972 19.984-23.776 20.26 0.196 21.936 8.74 18.86 23.868z" fill="#464646" /><path d="M759.632 737.944c-0.636-3.668-1.264-7.328-1.904-10.988l-4.564-49.888c8.268 2.844 16.62 5.48 24.788 8.568 31.604 11.936 77-4.976 86.192-35.396 20.988-14.792 43.12-28.428 54.36-53.188l0.404-0.924-0.592-0.812c1.524-1.848 3.032-3.688 4.548-5.536 12.084-11.62 15.956-26.976 19.348-42.564 1.992-5 3.98-10.004 5.96-15 9.392 44.084-12.08 78.996-40.588 106.108-33.344 31.704-48.764 70.392-62.092 111.652-28.744-3.144-56.62-12.444-85.86-12.032z" fill="#B5EABB" /><path d="M759.632 737.944c29.24-0.416 57.112 8.888 85.856 12.036 16.552 3.768 34.344 1.332 49.936 9.92-1.696 7.024-10.048 3.868-13.468 8.1 0.704 1.584 0.984 3.416 1.672 3.588 32.98 8.016 21.936 11.624 8.808 29.828-15.104 20.964-35.416 35.632-54.76 51.56-6.084 5.012-13.972 8.872-22.82 7.808 1.22-18.94 0.504-37.448-12.148-53.244 12.092-8.128 24.132-16.36 33.788-27.46 6.44-7.408 8.356-13.196-4.9-14.744-27.688-3.232-55.392-7.216-83.064-1.036-7.636 1.712-9.728-4.468-14.376-6.996 4.848-11.236 13.852-17.032 25.476-19.36z" fill="#9FD5A7" /><path d="M815.004 353.736c21.96 8.296 40.412 21.084 52.98 41.404 0.18 2.52-0.076 5.168 0.616 7.54 3.876 13.404 1.664 25.292-9.76 33.848-10.72 8.032-21.548 3.4-32.08-1.596-20.656-9.788-39.608-22.18-56.992-36.996-2.032-8.572-13.296-15.624-4.248-26 12.316-17.44 29.792-20.828 49.484-18.2z" fill="#FEFEFE" /><path d="M769.768 397.936c17.384 14.816 36.336 27.208 56.992 36.996 10.532 4.996 21.36 9.628 32.08 1.596 11.424-8.556 13.636-20.444 9.76-33.848-0.692-2.372-0.436-5.02-0.616-7.54 7.872-1.648 13.216 2.348 18.24 7.74 21.16 22.724 26.312 59.42 12.28 88.72-13.072 27.288-47.888 47.172-77.936 44.512-28.812-2.552-60.82-27.728-67.692-56.152-6.06-25.08-6.588-50.344 12.184-71.872 2.356-2.704 3.184-6.74 4.708-10.152z" fill="#FCE59D" /><path d="M195.956 401.464c0.212-2.272 0.42-4.544 0.64-6.824 10.696-10.86 16.372-26.084 29.94-34.448 1.188 9.608-4.86 16.792-8.404 24.784-9.504 21.444-18.052 43.132-18.232 67.104-4.876 3.808-4.852 7.64-0.06 11.5l0.136 53.448c1.316 8.088 2.248 16.268 4.028 24.252 4.604 20.572 40.424 70.06 67.916 71.028 13.56 0.48 25.932 5.58 38.9 8.316 40.892 8.612 81.98 15.66 123.592 4.684 82.22-21.692 138.44-75.808 181.812-146 15.7-25.416 20.768-54.2 27.088-82.612 5.584-25.092 20.416-41.216 45.376-47.832-23.248 28.104-26.516 60.832-22.04 95.34l-0.416 15.016c-3.172 5.704-4.868 11.832-3.988 18.316 3.3 24.444-8.956 43.9-19.9 63.924-9.624 17.604-27.396 27.584-39.164 43.224-29.632 39.404-65.292 68.824-117.304 73.536-46.82 4.24-92.876 18.972-140.668 7.98-16.552-3.808-33.604-9.128-49.948-9.544-33.852-0.884-56.356-19.656-76.588-41.912-29.248-32.156-35.94-72.94-37.748-114.66-1.46-33.8 6.4-66.296 15.032-98.62z" fill="#9FD5A7" /><path d="M165.256 477.268c-0.248-11.636 4.58-22.132 7.496-33.052l0.956 0.372c0.96 1.592 2.936 3.328 2.736 4.76-5.584 40.42-5.724 80.876 0.696 121.128 4.62 28.964 12.444 55.528 37.8 75.892 14.2 11.392 30.624 14.396 45.024 23.056 32.792 19.712 70.744 24.368 106.736 29.412 37.024 5.18 76.016 5.576 113.768-2.264 66.004-13.708 130.52-31.24 187.96-68.776 16.376-10.7 22.92-21.296 18.26-42.248-4.06-18.248-18.064-38.284-1.064-57.584 4.508 11.668 9.012 23.344 13.528 35.016 4.076 21.712 16.528 39.988 24.584 60.06-1.88 9.944 2.596 18.668 5.308 27.748 9.752 32.696 7.188 37.084-26.472 45.536-0.616 0.156-1.288 0.096-1.884 0.292-30.412 9.884-62.444 9.064-93.508 14.308-44.916 7.592-89.424 19.096-135.36 15.88-23.416-1.64-47.232-7.048-70.068-2.5-23.348 4.648-45.368 1.08-67.88-1.656-15.024-1.832-30.18-3.62-44.84-7.204-40.748-9.956-78.32-25.748-103.068-62.344-16.488-24.384-22.392-51.968-24.276-80.792-2.068-31.816 3.216-63.324 3.568-95.04z" fill="#79AB82" /><path d="M685.628 527.96c-17 19.296-2.996 39.336 1.064 57.584 4.66 20.948-1.888 31.548-18.26 42.248-57.436 37.54-121.952 55.072-187.96 68.776-37.752 7.84-76.744 7.444-113.768 2.264-35.992-5.044-73.94-9.7-106.736-29.412-14.404-8.66-30.828-11.664-45.024-23.056-25.356-20.364-33.18-46.924-37.8-75.892-6.42-40.248-6.28-80.708-0.696-121.128 0.2-1.432-1.776-3.168-2.736-4.76 7.052-14.56 9.264-31.612 22.248-43.116-8.636 32.316-16.496 64.812-15.032 98.612 1.808 41.72 8.5 82.504 37.748 114.66 20.232 22.252 42.736 41.028 76.588 41.912 16.344 0.416 33.396 5.736 49.948 9.544 47.792 10.992 93.848-3.744 140.668-7.98 52.012-4.712 87.672-34.132 117.304-73.536 11.768-15.64 29.54-25.616 39.164-43.224 10.94-20.028 23.2-39.48 19.9-63.924-0.88-6.484 0.816-12.612 3.988-18.316 12.16 21.308 11.532 46.224 19.392 68.744z" fill="#88BE91" /><path d="M723.744 623.036c-8.06-20.072-20.512-38.348-24.584-60.06 8.212-0.812 12.82 5.024 17.164 10.224 38.584 46.288 129.984 56.552 180.392 28.988 6.864-3.756 13.98-5.748 21.792-5.132-11.236 24.756-33.368 38.396-54.352 53.184-37.384 17.76-75.16 24.788-113.94 4.156l0.036 0.152-3.408-4.136a36396.16 36396.16 0 0 1-23.1-27.376zM666.652 444.204c-4.476-34.508-1.212-67.236 22.04-95.34 9.64-10.076 22.608-14.256 34.896-19.652l-0.404 0.616c0.936 6.976-2.272 12.016-7.116 16.692-25.528 24.628-40.636 54.268-42.636 90.068-0.252 4.424-2.28 7.072-6.78 7.616zM922.864 589.78c-1.516 1.848-3.024 3.688-4.548 5.536 1.512-1.844 3.032-3.684 4.548-5.536zM726.572 329.62c1.504-0.864 3.008-1.736 4.5-2.6-1.492 0.868-2.996 1.732-4.5 2.6z" fill="#C57A08" /><path d="M456.084 257.02c0.332-7.084 5.984-6.448 10.72-7.96 22.864-7.26 44.58-16.756 61.788-34.296 15.196 0.072 30.384 0.152 45.584 0.232 12.008 0.34 24.212-0.244 34.684 7.332-7.556 12.796-18.236 21.324-31.444 28.652-12.224 6.776-26.324 2.66-37.604 10.232-27.968-0.304-55.644-6.364-83.728-4.192z" fill="#88BE91" /><path d="M608.872 222.324c-10.484-7.572-22.688-6.984-34.696-7.328 2.2-8.68 5.212-16.928 12.236-23.056 21.024-0.596 40.532 6.864 60.604 11.32l22.808 7.828 3.912 4.116c-2.916 4.996-4.528 10.308-3.844 16.164-7.676-0.58-15.348-1.156-23.024-1.728-11.564-8.144-25.024-6.496-37.996-7.316z" fill="#9FD5A7" /><path d="M456.084 257.02c28.088-2.168 55.76 3.888 83.728 4.192l56.836 12.016c6.64 3.468 13.284 6.944 19.932 10.412-1.576 2.22-3.508 3.24-6.412 2.852-23.52-3.12-34.368 7.064-35.964 31.148-5.3 79.68-34.216 147.916-101.208 195.156-61.096 43.084-128.36 57.372-201.956 37.956-26.056-6.876-48.9-19.28-71.064-33.724l-0.136-53.448c4.988-3.812 5.016-7.644 0.06-11.5 0.18-23.972 8.728-45.66 18.232-67.104 3.54-7.992 9.592-15.176 8.404-24.784l-0.048 0.14c5.424-0.132 7.824-3.02 7.564-8.324l26.46-28.82c18.7-7.528 32.604-22.76 50.52-31.56 45.992-21.396 94.968-30.332 145.052-34.608z m-4.04 142.516c0.544-35.876-31.952-60.308-69.376-58.124-60.82 3.552-118.328 55.3-129.66 115.86-4.948 26.432 0.044 49.68 21.792 66.148 23.756 18 45.412 5.308 66.592-7.796 28.804-17.832 53.34-40.956 77.656-63.972 16.328-15.452 31.724-33.196 32.996-52.116z" fill="#B7EFBD" /><path d="M199.976 517.032c22.164 14.44 45.004 26.848 71.064 33.724 73.596 19.416 140.86 5.124 201.956-37.956 66.992-47.24 95.908-115.476 101.208-195.156 1.596-24.084 12.444-34.268 35.964-31.148 2.904 0.388 4.836-0.636 6.412-2.852 38.44 8.684 74.808 22.232 107.008 45.572-12.284 5.396-25.252 9.58-34.896 19.652-24.96 6.616-39.788 22.744-45.376 47.832-6.32 28.416-11.392 57.2-27.088 82.612-43.372 70.192-99.592 124.312-181.812 146-41.612 10.976-82.7 3.928-123.592-4.684-12.968-2.74-25.34-7.836-38.9-8.316-27.492-0.968-63.312-50.456-67.916-71.028-1.784-7.984-2.716-16.164-4.032-24.252z" fill="#B5EABB" /><path d="M596.644 273.228l-56.836-12.016c11.28-7.568 25.384-3.452 37.604-10.228 13.212-7.328 23.892-15.856 31.444-28.652 12.984 0.812 26.444-0.836 38.008 7.312-3.176 14.84-14.808 22.088-26.404 29.388-7.82 4.92-17.62 6.54-23.816 14.196z" fill="#79AB82" /><path d="M669.892 231.372c-0.684-5.856 0.928-11.168 3.844-16.164 7.792 1.304 14.924 3.74 19.152 11.168-0.036 5.208-0.08 10.416-0.112 15.624-8.032-2.676-17.384-2.512-22.884-10.628z" fill="#88BE91" /><path d="M723.744 623.036l23.088 27.376 3.416 4.136-0.036-0.152c-0.616 7.768-1.128 15.524 2.956 22.676l4.564 49.888-61.172 30.724c-94.104 33.98-191.988 36.1-290.316 34.464l-18.848-0.296c-1.78-3.044-4.688-3.488-7.828-3.4-58.636-9.068-116.536-20.36-166.164-57.836-2.884 10.04 1.548 16.316 2.688 23.012 1.144 6.74 4.7 13.056 7.2 19.56 3.572 19.156 17.22 34.628 19.828 54.12-5.42 28.132-31.288 50.696-61.06 52.596-10.736 0.68-21.552 0.252-32.328 0.092-15.252-0.232-18.244-8.568-10.42-19.692 23.976-34.1 32.512-73.472 40.44-113.148 0.984-4.908 0.964-10.076 0.944-15.12-0.084-20.316-8.228-39.012-11.968-58.604-11.976-31.284-14.568-64.396-18.912-97.16 6.936-28.248 4.132-57.52 8.984-85.992a5610.08 5610.08 0 0 0 6.452-12.992c-0.348 31.696-5.632 63.204-3.552 95.012 1.884 28.824 7.788 56.412 24.276 80.792 24.752 36.596 62.324 52.388 103.068 62.344 14.66 3.584 29.816 5.372 44.84 7.204 22.508 2.736 44.528 6.304 67.88 1.656 22.836-4.548 46.652 0.86 70.068 2.5 45.932 3.22 90.44-8.284 135.36-15.88 31.064-5.248 63.096-4.424 93.508-14.308 0.592-0.196 1.264-0.136 1.884-0.292 33.66-8.452 36.224-12.84 26.472-45.536-2.716-9.076-7.192-17.8-5.312-27.744z" fill="#669470" /><path d="M234.048 352.012c0.26 5.304-2.136 8.188-7.564 8.324 0.032-3.376 0.92-6.332 3.972-8.256 1.2 0.224 2.396 0.204 3.592-0.068z" fill="#9FD5A7" /><path d="M223.292 773.184c-2.5-6.504-6.056-12.82-7.2-19.56-1.14-6.696-5.572-12.972-2.688-23.012 49.628 37.476 107.528 48.768 166.164 57.832 0.776 5.356 2.148 9.348 7.828 3.404l18.848 0.296c1.884 16.008 16.38 12.52 25.384 14.516 29.56 6.548 59.604 10.876 89.448 16.168 7.608 1.352 15.408 3.188 18.124 11.708 2.896 9.048-3.876 14.2-9.508 19.2-4.216 3.744-9.112 6.824-14 9.7-73.352 43.084-142.948 21.968-210.44-14.348-29.64-15.952-56.668-36.648-71.444-69-2.004-4.384-5.488-6.928-10.516-6.904z" fill="#464646" /><path d="M802.708 807.548c12.652 15.792 13.368 34.3 12.148 53.244-3.932 7.844-6.956 16.336-11.976 23.416-12.968 18.304-30.196 19.624-48.116 4.58-1.592-15.912-0.744-31.612 3.552-47.056 1.08-2.172 2.816-4.252 3.128-6.524 3.864-28.292 14.512-35.504 41.264-27.66z" fill="#E4F8E6" /><path d="M81.232 723.68l0.136-26.932c36.872-0.376 30.348-2.404 30.456 31.352 0.032 9.544 5.488 22.688-10.816 25.964-2.736-12.636-3.82-26.348-19.776-30.384zM753.168 677.072c-4.084-7.152-3.576-14.908-2.956-22.676 38.78 20.632 76.56 13.604 113.94-4.156-9.196 30.42-54.588 47.336-86.196 35.4-8.168-3.088-16.52-5.724-24.788-8.568z" fill="#9FD5A7" /><path d="M199.9 452.084c4.96 3.856 4.928 7.688-0.06 11.5-4.792-3.86-4.816-7.692 0.06-11.5z" fill="#B5EABB" /><path d="M750.248 654.548l-3.416-4.136c1.144 1.376 2.276 2.756 3.416 4.136z" fill="#9FD5A7" /><path d="M452.044 399.536c-1.272 18.92-16.668 36.664-32.996 52.116-24.316 23.012-48.848 46.14-77.656 63.972-21.184 13.104-42.836 25.796-66.592 7.796-21.752-16.468-26.74-39.716-21.792-66.148 11.332-60.56 68.84-112.308 129.66-115.86 37.424-2.184 69.916 22.252 69.376 58.124z" fill="#E4F8E6" /><path d="M387.396 791.848c-5.68 5.944-7.052 1.952-7.828-3.404 3.14-0.084 6.048 0.36 7.828 3.404z" fill="#2E2E2E" /></svg>