<?xml version="1.0" standalone="no"?><!DOCTYPE svg PUBLIC "-//W3C//DTD SVG 1.1//EN" "http://www.w3.org/Graphics/SVG/1.1/DTD/svg11.dtd"><svg class="icon" width="200px" height="200.00px" viewBox="0 0 1024 1024" version="1.1" xmlns="http://www.w3.org/2000/svg"><path d="M855.864 708.5c23.936 2.756 48.316 2.492 71.648 9.5 7.78 2.332 16.276 4.016 21.612 11.336-3.616 15.14 1.672 31.908-9.324 45.756-38.672 48.652-82.936 89.816-142.816 111.476-17.752 6.42-37.096 10.836-49.616 27.184-13.248-1.64-16.908-14.828-28.844-23.984v117.336h-97.664c-0.484-7.296 1.208-13.336 5.696-19.82 36.976-53.372 50.048-110.176 27.492-173.78-6.248-17.608-20.06-31.8-21.28-51.22 7.216-1.036 11.908 3.836 17.18 7.372 20.356 13.68 33.828 33.292 46.36 53.724 2.236 6.888 4.008 14.108 11.716 18.348 6.788-33.708 10.744-38.268 35.228-41.788-0.328 4.484-0.944 8.968-0.916 13.448 0.064 10.652-2.86 23.048 10.66 28.052 13.656 5.052 24.736 0.108 34.372-10.5 15.588-17.188 14.728-37.432 12.26-58.204 8.912-0.6 15.416-5.568 21.936-11.172 16.7-14.368 30.772-30.256 34.3-53.064z" fill="#CA5753" /><path d="M534.912 7c5.104 2.472 10.208 4.94 15.308 7.416 3.668 19.516 18.456 31.544 30.868 44.984 7 7.576 16.488 13.508 18.916 24.04 5.244 22.728 6.044 45.916 5.428 69.212-0.236 8.972-5.192 10.808-12.372 11.084-25.084-1.84-50.164-3.9-75.272-5.492-75.9-4.808-151.6-8.436-215.428 44.832-0.548-43.036 14.848-80.604 39.932-114.62 29.288-39.728 69.824-62.172 116.576-75 4.68-1.284 10.564-1.148 13.544-6.452l62.5-0.004z m-49.012 97.756c-2.496 15-1.016 24.932 18.832 23.748 14.544-0.868 23.392-1.796 21.436-19.716-1.388-12.7 2.98-26.108-18.672-24.496-14.892 1.112-26.632 0.916-21.596 20.464z m-55.06 1.86c3.604-16.456-1.776-22.168-19.712-22.544-19.484-0.412-19.768 8.5-20.12 23.168-0.368 15.216 2.688 21.34 19.82 21.356 17.48 0.02 23.96-5.024 20.012-21.98zM515.38 1007.104h-50.788c2.104-42.396-3.196-85.012 4.02-127.248 1.5-4.164 3.404-8.232 4.436-12.512 9.852-40.896 28.028-76.264 65.272-99.1 2.532-0.272 6.304-1.772 7.416-0.648 26.904 27.248 48.908 58.056 51.192 97.352 2.968 51.148-19.368 91.056-61.076 120.632-8.004 5.676-19.824 8.536-20.472 21.524z" fill="#F8D99A" /><path d="M515.38 1007.104c0.648-12.988 12.468-15.848 20.476-21.528 41.708-29.58 64.044-69.484 61.076-120.632-2.284-39.296-24.288-70.1-51.192-97.352-1.108-1.124-4.884 0.376-7.416 0.656 0.984-2.164 0.756-4.732 3.916-5.916 30.208-11.396 60.344-13.748 90.54-0.048 1.212 19.416 15.02 33.608 21.268 51.22 22.556 63.604 9.484 120.412-27.492 173.78-4.488 6.484-6.18 12.524-5.696 19.82h-105.48zM257.54 1007.104l0.46-31.024c30.1-10.98 45.32-36.276 58.28-62.772 9.216-18.832 15.684-39.008 23.38-58.588 26.344 7.9 52.692 15.792 79.04 23.688-8.484 37.84-18.684 75.072-41.628 107.224-4.784 6.708-7.632 13.304-6.24 21.476l-113.292-0.004z" fill="#EBBF67" /><path d="M370.832 1007.104c-1.392-8.172 1.452-14.768 6.24-21.476 22.944-32.152 33.144-69.384 41.616-107.224l49.924 1.448c-7.22 42.24-1.916 84.856-4.02 127.248l-93.76 0.004z" fill="#CA5753" /><path d="M264.84 287.54l3.968-3.196c3.9 13.624 9.14 3.516 13.344 0.5 51.196-36.736 108.624-53.276 171.236-55.832 44.584-1.82 87.8 6.496 131.392 12.852 12.46 10.92 30.336 6.704 43.508 15.604 1.628 17.38 16.772 28.36 20.288 45.592 7.324 35.876-0.796 70.912-2.836 106.184-0.992 17.092-2.62 34.916-9.448 51.196-36.9 87.96-139.892 149.204-238.552 133.224-89.304-14.468-161.148-77.228-184.396-165.004-4.78-18.048-3.008-37.084-10.704-54.328l-0.432-4.596c16.912-24.46 33.66-49.04 56.28-68.844 3.968-3.476 7.38-7.412 6.352-13.352z m74.608 257.084c-2.46 14.248 5.944 11.816 13.468 8.048 18.504-9.264 36.624-19.288 54.964-28.896 5.692-2.98 10.988-6.02 18.132-1.972 16.368 9.28 33.032 18.128 50.048 26.132 5.912 2.776 10.028 14.12 17.6 7.684 6.144-5.228 2.136-14.72 1.256-22.316-0.736-6.42-0.952-13.2-3.284-19.076-12.892-32.5-2.504-56.876 24.764-76.356 6.256-4.476 11.4-10.632 16.608-16.42 3.66-4.068 11.384-7.344 7.956-13.916-2.652-5.1-9.832-5.24-15.724-6.024-17.3-2.308-34.488-6.06-51.844-7.172-12.652-0.816-18.196-7.704-22.932-17.656-8.372-17.596-17.264-34.94-25.816-52.452-4.864-9.96-9.164-9.508-13.892 0.156-9.14 18.672-18.844 37.072-27.66 55.896-3.924 8.384-8.616 13.02-18.664 13.856-18.644 1.56-37.208 4.588-55.64 7.932-5.204 0.94-12.904 0.484-14.836 6.972-1.696 5.716 4.64 8.696 8.116 12.236 12.752 12.98 25.416 26.068 38.764 38.42 8.504 7.864 11.376 15.836 8.628 27.596-4.404 18.86-6.776 38.192-10.012 57.328z" fill="#FD8686" /><path d="M468.612 879.856l-49.924-1.448-79.028-23.688c-20.964-16.512-44.864-29.372-62.388-50.16-4.296-5.416-6.816-12.36-13.348-15.928-37.856 49.8-66.196 59.156-127.368 42.216-1.596-0.916-3.188-1.844-4.788-2.756l0.072 0.112c-1.064-12.328 4.38-22.224 10.796-32.268 26.372-41.308 38.872-86.008 33.236-135.464-1.244-10.932-12.32-18.808-8.06-30.788 10.12 0.504 17.976 0.684 11.056-13.932-6.264-13.24-11.612-27.356-10.98-42.672 8.616-9.34 9.364 0.64 12.056 5.056 41.16 67.496 106.688 98.88 179.54 115.304 45.156 10.184 91.876 11.7 138.552 1.328 86.372-19.196 162.536-51.796 204.012-137.888 7.584 17.188 21.272 32.764 34.004 49.052-0.432 26.908 9.396 52.228 12.156 78.636-18.532 3.344-24.46 18.576-29.336 33.296-9.16 27.672-13.044 56.476-14.208 85.584-0.312 7.856 0.068 15.636-8.352 19.936-12.532-20.428-26.004-40.044-46.36-53.724-5.272-3.536-9.964-8.408-17.18-7.372-30.184-13.7-60.32-11.348-90.528 0.048-3.156 1.188-2.928 3.752-3.916 5.916-37.244 22.828-55.42 58.2-65.272 99.092-1.04 4.28-2.944 8.348-4.444 12.512z" fill="#8B2F2F" /><path d="M736.052 605.916c-12.74-16.28-26.424-31.86-34.012-49.048-41.476 86.088-117.64 118.692-204.012 137.888-46.672 10.372-93.396 8.856-138.552-1.328-72.852-16.424-138.38-47.808-179.54-115.304-2.688-4.416-3.44-14.396-12.056-5.048 0.784-22.9-5.856-41.912-23.872-57.916-10.868-9.652-17.036-24.144-20.32-38.984 1-3.372 0.424-6.252-2.596-8.376l-1.004-15.616c9.684 0.068 19.54-0.996 29.012 0.452 18.148 2.768 26.7-6.116 28.884-22.356 2.84-21.184 14.252-38.268 24.652-55.948 7.7 17.244 5.928 36.276 10.708 54.324 23.248 87.78 95.092 150.536 184.396 165.004 98.66 15.98 201.652-45.264 238.552-133.224 6.828-16.28 8.456-34.104 9.448-51.196 2.04-35.272 10.16-70.308 2.836-106.184-3.516-17.232-18.66-28.212-20.284-45.596 30.564 9.74 59.888 22.14 86.532 40.296-0.312 5.876-4.656 9.216-8.464 12.596-26.6 23.612-40.52 55.012-44.644 88.504-4.132 33.492 5.96 67.908 18.492 98.152 21.764 52.532 99.556 85.528 156.048 74.3 23.76-4.72 44.828-15.868 67.448-23.024-34.932 63.272-108.848 88.672-167.652 57.632zM584.772 241.868c-43.584-6.364-86.796-14.676-131.384-12.86-62.612 2.556-120.04 19.096-171.236 55.832-4.204 3.016-9.444 13.128-13.344-0.5 3.544-22.5 11.088-43.536 23.132-62.916 11.204 4.064 19.16-7.96 31.588-4.668 42.656 11.308 86.236 8.716 124.636-11.828 34.332-18.372 69.08-19.296 105.316-18.156 15.472 0.488 30.928 2.088 46.34 3.692 12.412 1.296 20.292-2.512 21.116-16.048 16.5 0.58 31.904 5.788 46.712 12.328 8.556 3.772 11.092 0.94 13.532-6.844 4.028-12.824 1.06-25.808 2.38-38.62 0.644-6.208-3.9-15.38 7.88-16.404 11.684 25.304 20.144 51.508 18.772 79.72-0.5 10.256 9.012 13.68 11.476 21.512-8.524 0.24-16.756-0.532-24.416-4.972-14.128-8.204-29.44-13.276-45.308-17.032-6.672-1.58-13.7-3.288-17.88 2.924-12.104 18.04-30.112 27.156-49.312 34.84zM167.804 629.676c-4.26 11.98 6.816 19.856 8.06 30.788 5.64 49.456-6.864 94.156-33.236 135.464-6.416 10.048-11.86 19.94-10.796 32.268-22.424-7.176-40.556-20.332-54.564-39.22 0.52-15.488-0.328-31.24 8.648-45.1 12.304 6.32 25.66 8.448 29.12-8.076 4.308-20.548 4.844-42.088-10.404-60.02 0.38-9.168 0.008-22.52-8.972-22.78-20.5-0.604-14.544-10.228-10.384-20.856 14.456-7.056 30.328-3.444 45.36-6 12.376 1.168 24.768 2.352 37.168 3.532z" fill="#CA5753" /><path d="M620.94 174.42c-0.824 13.536-8.708 17.344-21.116 16.048-15.412-1.604-30.868-3.204-46.34-3.692-36.24-1.14-70.984-0.216-105.316 18.156-38.4 20.544-81.984 23.136-124.636 11.828-12.432-3.296-20.384 8.732-31.588 4.668 3.464-6.124 6.932-12.236 10.408-18.352 63.836-53.264 139.54-49.64 215.436-44.832 25.108 1.592 50.188 3.652 75.272 5.492 4.968 14.836 20.704 1.608 27.88 10.684z" fill="#FD8686" /><path d="M277.272 804.56c17.524 20.788 41.424 33.648 62.388 50.16-7.696 19.584-14.164 39.756-23.38 58.588-12.964 26.496-28.18 51.792-58.28 62.772-0.528-57.956-5.844-116.448 19.272-171.52z" fill="#F8D99A" /><path d="M85.916 743.88c-8.976 13.864-8.128 29.612-8.648 45.1-28.044-18.628-46.64-95.216-33.424-124.796 8.124-18.18 19.524-31.832 41.436-32.036-4.168 10.628-10.12 20.248 10.38 20.856 8.98 0.26 9.352 13.612 8.972 22.768-14.524-0.928-22.2 7.356-27.336 19.716-7.52 18.1-0.468 33.376 8.62 48.392z" fill="#FD8686" /><path d="M167.804 629.676c-12.4-1.18-24.792-2.364-37.168-3.528-6.236-16.156-7.016-32.2-2.4-49.304 6.7-24.812 3.184-49.144-6.06-73.256-3.116-8.128-8.928-18.188-0.96-27.592l1.244-0.036 1.228 0.22c3.284 14.84 9.452 29.332 20.32 38.984 18.012 16.008 24.656 35.02 23.872 57.916-0.632 15.308 4.716 29.424 10.98 42.664 6.916 14.616-0.936 14.436-11.056 13.932zM264.84 287.54c1.028 5.94-2.384 9.876-6.348 13.348-22.62 19.804-39.368 44.384-56.28 68.848-21.668 4.756-42.108 15.98-65.352 12.46C164.444 330.272 208.68 300.844 264.84 287.54z" fill="#F8D99A" /><path d="M136.856 382.196c23.248 3.52 43.684-7.704 65.352-12.46l0.428 4.596c-10.404 17.68-21.812 34.764-24.656 55.948-2.184 16.24-10.74 25.124-28.884 22.356-9.472-1.444-19.328-0.384-29.012-0.452-2.74-25.324 1.784-48.908 16.772-69.988zM123.688 476.176l-1.228-0.22-1.244 0.036-0.124-8.192c3.02 2.124 3.596 5.004 2.596 8.376z" fill="#EBBF67" /><path d="M131.764 828.084c1.6 0.916 3.192 1.84 4.788 2.756-2.464 0.584-4.132-0.208-4.788-2.756z" fill="#CA5753" /><path d="M903.732 548.272c-22.648 7.172-43.716 18.32-67.476 23.04-56.492 11.232-134.28-21.764-156.048-74.3-12.532-30.248-22.624-64.66-18.492-98.152 4.124-33.492 18.044-64.892 44.644-88.504 3.808-3.38 8.152-6.724 8.472-12.604 12.716-5.848 27.624-4.884 39.648-12.86 12.468 4.764 25.824 1.612 38.564 4.292 90.5 19.072 152.02 109.292 134.024 197.476-2.416 11.832-4.032 24.064-6.2 36.08-5.692 0.532-7.088 3.636-5.2 8.708-1.56 3.616-3.112 7.232-4.68 10.84-2.42 1.984-4.836 3.984-7.256 5.984zM752.876 354.36c-4.628 0.22-8.236 1.428-11.644 5.468-22.844 27.076-28.3 55.688-15.736 90.056 22.752 62.188 93.204 76.24 138.408 45.488 46.392-31.572 56.188-96.784 15.284-141.884-14.576-16.06-34.992-23.552-47.384-17.024-5.504-3.196-10.848-6.716-16.54-9.528-32.424-16.028-61.212-3.308-62.388 27.424z" fill="#EBBF67" /><path d="M747.368 913.752c12.52-16.348 31.868-20.76 49.616-27.184 59.88-21.66 104.144-62.824 142.816-111.476 10.996-13.852 5.708-30.616 9.324-45.756 17.896 9.428 26.384 25.436 26.5 44.48 0.352 56.88-24.04 101.956-70.88 133.416-46.424 31.184-96.716 35.056-148.604 13.928-3.376-1.368-5.872-4.884-8.772-7.408z" fill="#8B2F2F" /><path d="M620.94 174.42c-7.176-9.08-22.916 4.152-27.884-10.688 7.18-0.276 12.136-2.112 12.372-11.084 0.612-23.3-0.188-46.484-5.428-69.212-2.424-10.532-11.916-16.464-18.916-24.04-12.412-13.436-27.2-25.464-30.868-44.984 66.464 12.02 112.14 50.632 141.224 110.46-11.776 1.028-7.236 10.204-7.88 16.412-1.32 12.812 1.648 25.796-2.38 38.62-2.436 7.784-4.976 10.616-13.532 6.844-14.804-6.536-30.208-11.748-46.708-12.328z" fill="#EBBF67" /><path d="M696.304 823.38c8.416-4.3 8.04-12.084 8.352-19.936 1.164-29.108 5.048-57.916 14.208-85.584 4.876-14.724 10.804-29.952 29.332-33.312 2.584 3.908 5.564 6.744 10.94 6.312 19.492-1.544 38.044 5.244 57.2 6.8l39.528 10.86c-3.528 22.792-17.596 38.68-34.304 53.048-6.52 5.604-13.028 10.572-21.924 11.172-1.872-2.576-3.604-5.26-5.64-7.704-6.712-8.02-14.192-17.116-25.476-14.148-10.548 2.772-15.36 13.004-18.212 23.364l-7.06 25.692c-24.484 3.52-28.436 8.084-35.228 41.788-7.708-4.244-9.48-11.468-11.716-18.352z" fill="#FD8686" /><path d="M816.336 697.656c-19.156-1.56-37.708-8.344-57.2-6.8-5.38 0.428-8.36-2.408-10.94-6.312-2.756-26.396-12.584-51.716-12.152-78.62 58.812 31.036 132.732 5.632 167.66-57.632 2.448-2.016 4.864-4.016 7.284-6.004 4.872 18.892-6.176 31.424-18.364 42.46-34.732 31.468-60.04 69.064-76.288 112.908z" fill="#F8D99A" /><path d="M754.48 284.892c-12.024 7.976-26.932 7.008-39.648 12.86-26.652-18.148-55.976-30.548-86.54-40.288-13.176-8.9-31.052-4.684-43.512-15.604 19.192-7.672 37.2-16.792 49.304-34.824 4.18-6.212 11.208-4.504 17.88-2.924 15.868 3.752 31.18 8.828 45.308 17.032 7.66 4.44 15.896 5.212 24.416 4.972 17.64 15.852 25.976 36.884 32.792 58.776z" fill="#8B2F2F" /><path d="M915.668 531.444c-1.892-5.072-0.492-8.176 5.2-8.708 1.264 4.696-1.256 7.128-5.2 8.708zM743.248 799.936a61353.2 61353.2 0 0 0 7.06-25.692c2.852-10.36 7.664-20.588 18.212-23.364 11.284-2.968 18.764 6.128 25.476 14.148 2.036 2.44 3.768 5.128 5.64 7.704 2.452 20.768 3.316 41.016-12.272 58.204-9.636 10.608-20.716 15.552-34.372 10.5-13.52-5.004-10.596-17.4-10.66-28.052-0.032-4.476 0.584-8.964 0.916-13.448z" fill="#F8D99A" /><path d="M485.9 104.756c-5.036-19.548 6.704-19.352 21.596-20.46 21.652-1.616 17.284 11.792 18.672 24.496 1.956 17.916-6.892 18.844-21.436 19.716-19.848 1.18-21.328-8.752-18.832-23.752zM430.84 106.616c3.948 16.952-2.532 22-20.012 21.98-17.128-0.016-20.184-6.14-19.82-21.356 0.352-14.668 0.636-23.58 20.12-23.168 17.936 0.38 23.316 6.092 19.712 22.544z" fill="#8B2F2F" /><path d="M339.448 544.624c3.236-19.136 5.608-38.472 10.012-57.328 2.752-11.76-0.12-19.732-8.628-27.596-13.348-12.352-26.012-25.44-38.764-38.42-3.48-3.54-9.816-6.52-8.116-12.236 1.932-6.492 9.632-6.032 14.836-6.972 18.432-3.344 36.996-6.372 55.64-7.932 10.048-0.836 14.74-5.472 18.664-13.856 8.816-18.824 18.52-37.224 27.66-55.896 4.728-9.664 9.028-10.112 13.892-0.156 8.552 17.512 17.444 34.856 25.816 52.452 4.736 9.952 10.28 16.84 22.932 17.656 17.36 1.116 34.544 4.868 51.844 7.172 5.892 0.784 13.072 0.924 15.724 6.024 3.424 6.572-4.296 9.848-7.956 13.916-5.212 5.788-10.352 11.944-16.608 16.42-27.268 19.48-37.656 43.86-24.764 76.356 2.332 5.876 2.548 12.652 3.284 19.076 0.876 7.596 4.888 17.088-1.256 22.316-7.572 6.436-11.692-4.908-17.6-7.684-17.016-8.004-33.68-16.852-50.048-26.132-7.144-4.048-12.436-1.008-18.132 1.972-18.336 9.604-36.46 19.628-54.964 28.896-7.524 3.768-15.928 6.204-13.468-8.048zM85.916 743.88c-9.088-15.016-16.14-30.288-8.62-48.392 5.136-12.36 12.812-20.644 27.336-19.716 15.248 17.94 14.712 39.484 10.404 60.032-3.46 16.524-16.812 14.396-29.12 8.076zM831.804 336.464c12.392-6.528 32.808 0.964 47.384 17.024 40.904 45.1 31.104 110.316-15.284 141.884-45.204 30.752-115.656 16.704-138.408-45.488-12.568-34.368-7.108-62.98 15.736-90.056 3.412-4.036 7.016-5.248 11.648-5.468 16.944 23.104 40.984 36.18 66.424 47.428 9.292 4.108 17.796 3.396 25.012-3.488 7.876-7.508 11.316-16.92 8.688-27.94-3.256-13.68-12.84-23.408-21.2-33.896z" fill="#F8D99A" /><path d="M831.804 336.464c8.36 10.492 17.94 20.22 21.2 33.9 2.628 11.02-0.812 20.432-8.688 27.94-7.216 6.884-15.72 7.596-25.012 3.488-25.44-11.248-49.48-24.324-66.424-47.428 1.172-30.736 29.96-43.456 62.388-27.424 5.688 2.808 11.032 6.328 16.536 9.524z" fill="#FEFDFD" /></svg>