<?xml version="1.0" standalone="no"?><!DOCTYPE svg PUBLIC "-//W3C//DTD SVG 1.1//EN" "http://www.w3.org/Graphics/SVG/1.1/DTD/svg11.dtd"><svg class="icon" width="200px" height="200.00px" viewBox="0 0 1024 1024" version="1.1" xmlns="http://www.w3.org/2000/svg"><path d="M532.968 15.688c20.264 7.676 41.116 14.092 60.656 23.316 33.136 15.652 60.908 38.012 78.356 71.296-9.688 1.7-10.076 7.952-7.6 15.564 4.012 12.356 3.076 25.168 1.5 37.52-3.464 27.112-4.008 26.916-30.464 19.744-7.26-1.964-14.796-2.948-22.208-4.38-3.968-1.888-7.76-4.788-11.928-5.508-56.244-9.792-113.004-14.616-169.96-11.388-46.592 2.648-91.528 12.764-128.096 45.164-3.964-75.912 58.9-162.16 147.768-183.356 7.248-1.728 15.2-1.788 20.76-7.968l61.216-0.004zM427.672 114.12c2.928-13.804 1.632-23.132-17.832-22.696-16.288 0.364-22.132 3.844-21.336 21.032 0.684 14.668 1.284 23.396 20.024 22.132 14.576-0.992 23.804-2.488 19.144-20.468z m55.372-2.52c-2.34 14.248-1.316 23.792 18.136 23.056 15.572-0.588 20.96-4.268 19.916-20.172-0.88-13.4 0.776-24.224-19.072-23.02-15.116 0.908-23.168 3.532-18.98 20.136zM605.66 995.104h-141.556c-1.696-41.512-1.56-83.024 0.06-124.532 5.116-14.98 9.448-30.28 15.488-44.876 23.568-56.968 59.324-79.936 120.352-78.164l13.384 0.384c-1.132 5.536 1.752 9.476 4.676 13.84 19.68 29.392 32.364 61.512 32.896 97.14 0.632 42.788-11.34 81.992-38.816 115.468-5.316 6.472-7.928 12.692-6.484 20.74z" fill="#F2CF88" /><path d="M605.66 995.104c-1.444-8.052 1.168-14.268 6.48-20.74 27.476-33.476 39.448-72.68 38.816-115.468-0.532-35.628-13.216-67.752-32.896-97.14-2.92-4.364-5.808-8.304-4.692-13.84 23.904 7.732 42.428 22.532 57.856 42.188 6 7.656 8.9 18.248 19.14 22.316 3.836 4.68 0.632 12.552 7.12 16.304 13.592-38.328 13.592-38.328 36.312-41.24-0.328 6.348-0.9 12.684-0.94 19.024-0.064 11.344 2.076 22.368 14.12 26.592 11.464 4.024 20.752-1.348 28.736-9.956 17.056-18.38 19.172-45.892 5.088-72.376 16.06 0.068 29.34-12.256 32.952-22.204 7.028-19.364 19.632-25.18 36.504-28.696 23.976-0.364 46.008 9.396 69.16 13.316 6.404 1.084 11.188 5.176 15.188 10.152-6.972 10.1 3.028 22.224-3.8 32.316-41.328 61.056-94.764 106.14-167.12 125.904-13.588 3.712-23.88 8.88-20.24 25.64-15.316-3.548-22.16-17.36-34.492-29.676v117.58l-103.292 0.004z" fill="#CE5E58" /><path d="M257.508 995.104c1.544-59.828-5.276-120.208 11.812-179.028 1.936-6.652 3.416-13.444 5.1-20.184 34.912 31.956 74.04 56.356 120.74 67.152-4.272 31.088-16.276 59.472-30.012 87.344-7.452 15.112-21.704 26.652-23.472 44.716H257.508z" fill="#F2CF88" /><path d="M341.676 995.104c1.768-18.064 16.016-29.6 23.472-44.716 13.74-27.872 25.74-56.252 30.008-87.344 23.076 1.804 45.624 8.512 69.008 7.528-1.62 41.508-1.756 83.02-0.06 124.532H341.676z" fill="#CE5E58" /><path d="M464.164 870.576c-23.384 0.984-45.932-5.724-69.008-7.528-46.692-10.796-85.824-35.196-120.736-67.152-2.056-5.24-2.864-12.64-8.672-13.892-7.172-1.54-7.544 7.028-10.5 11.236-23.04 32.76-64.304 44.384-109.372 30.208-6.388-2.008-12.52-4.816-18.768-7.26-0.892-16.488 8.96-28.584 17.064-41.32 20.32-31.944 25.692-68.104 28.724-104.644 0.684-8.28-1.06-21.56-6.268-24.544-11.528-6.612-6.4-13-4.292-20.416 6.848-0.548 13.696-1.084 21.792-1.72-7.204-21.612-13.3-42.212-13.672-63.932 17.38 14.576 29.376 34.132 46.54 49.1 47.788 41.68 102.084 70.628 165.392 75.732 63.452 5.112 126.92 2.856 186.54-25.704 48.932-23.448 98.248-45.672 114.476-104.7 1.164-4.22 6.884-9.068 9.196-2.136 6.684 20 25.416 31.588 33.268 50.48-1.084 6.248 0.168 11.904 1.912 18.164a292.96 292.96 0 0 1 10.324 64.564c-14.728 1.312-22.072 11.808-26.788 23.68-7.18 18.064-10.256 37.244-13.26 56.476-2.468 15.716-0.116 32.288-7.692 47.156-10.24-4.072-13.136-14.66-19.136-22.316-15.424-19.656-33.952-34.456-57.856-42.188l-13.368-0.384c-61.028-1.772-96.784 21.196-120.352 78.164-6.04 14.592-10.372 29.892-15.488 44.876z" fill="#8A2F2F" /><path d="M725.872 602.384c-7.852-18.892-26.584-30.48-33.268-50.48-2.312-6.928-8.032-2.084-9.196 2.136-16.232 59.028-65.544 81.248-114.476 104.7-59.616 28.56-123.088 30.816-186.54 25.704-63.308-5.1-117.604-34.052-165.392-75.732-17.168-14.968-29.16-34.528-46.52-49.072-4.252-9.62 0.796-21.8-9.044-30.104-19.54-16.516-30.38-38.496-37.68-62.496l-0.816-19.5c10.724-0.004 21.524-0.852 32.136 0.196 13.6 1.34 19.288-4.484 24.704-16.836 8.924-20.352 11.112-43.988 27.884-60.712-0.276 20.544 5.176 40.424 10.664 59.592 30.82 107.704 136.704 176.796 249.392 156.356 73.972-13.42 161.608-89.708 166.692-162.328 3.844-54.852 17.78-109.184-16.74-159.424-0.648-0.944-0.436-2.476-0.628-3.732 16.336 0.284 31.496 7 44.008 15.34 24.74 16.492 48.972 28.132 78.928 16.54-0.68 7.784-7.612 9.612-12.676 13.088-49.604 34.108-71.876 92.352-55.8 149.992 20.496 73.516 103.444 118.332 176.28 90.168 21.924-8.472 37.936-24.964 58.608-34.396-13.644 69.364-114.164 136.968-180.52 91zM613.208 178.748c7.412 1.432 14.944 2.416 22.208 4.38 26.456 7.168 27 7.368 30.464-19.744 1.576-12.352 2.512-25.164-1.5-37.52-2.472-7.612-2.084-13.864 7.6-15.564 14.712 32.66 32.164 64.42 30.036 102.152-0.568 10.024 12.272 12.4 14.488 21.352-9.336 1.036-17.252-2.796-25.104-7.112-15.028-8.256-30.804-14.544-47.676-18.056-5.652-1.176-11.228-3.332-15.38 2.748-12.308 18.028-31.24 26.368-50.32 34.496-20.516-3.448-40.916-8.124-61.576-10.108-54.484-5.232-108.516-4.104-161.26 13.748-31.472 10.652-58.308 29.58-86.776 45.64l-0.368-8.112c4.692-19.712 10-39.216 20.264-56.948 11.572 0.804 19.688-10.288 32.444-7.836 58.332 11.196 113.204 1.508 163.708-30.244 5.268-3.312 10.768-5.172 16.164-3.692 28.536 7.828 58.192-0.804 86.792 6.52 13.212 3.388 23.82-0.124 25.792-16.1z" fill="#CE5E58" /><path d="M613.208 178.748c-1.972 15.976-12.58 19.488-25.792 16.096-28.6-7.328-58.256 1.304-86.792-6.52-5.396-1.48-10.896 0.38-16.164 3.692-50.504 31.752-105.372 41.44-163.708 30.244-12.752-2.448-20.872 8.64-32.444 7.836 2.612-9.224 10.12-15.28 14.916-23.084 36.568-32.4 81.504-42.516 128.096-45.164 56.956-3.232 113.716 1.596 169.96 11.388 4.164 0.724 7.96 3.624 11.928 5.512z" fill="#FD8787" /><path d="M162.336 625.26c-2.108 7.416-7.236 13.8 4.292 20.416 5.208 2.984 6.952 16.26 6.268 24.544-3.032 36.54-8.404 72.7-28.724 104.644-8.104 12.74-17.956 24.832-17.064 41.32-15.308-5.516-28.012-14.728-38.484-27.112-6.152-17.752 3.304-32.84 8.328-48.676 6.32 2.12 12.248 2.244 17.312-3.032 13.148-13.712 4.48-58.76-13-67.46-1.308-10.272 3.62-23.592-15.004-24.328-6.968-0.264-3.484-9.592-5.444-14.54 10.212-2.804 20.424-5.6 30.644-8.396 16.956 0.876 33.916 1.752 50.876 2.62z" fill="#CE5E58" /><path d="M268.04 287.048c0.12 2.704 0.248 5.408 0.372 8.108-24.384 21.656-48.052 43.896-60.752 75.016-16.772 16.736-18.96 40.372-27.884 60.724-5.416 12.352-11.1 18.176-24.704 16.836-10.612-1.048-21.412-0.2-32.136-0.196-0.864-63.864 36.528-103.548 85.956-135.388 18.204-11.72 39.564-16.408 59.148-25.1z" fill="#F2CF88" /><path d="M162.336 625.26l-50.88-2.62c0.188-10.112 0.58-20.228 0.528-30.332-0.068-13.852-0.124-27.028 8.272-39.76 7.184-10.884 7.072-27.072 1.944-36.652-9.656-18.072-2.26-32.788 1.552-48.856 7.304 24 18.14 45.98 37.68 62.496 9.84 8.304 4.788 20.484 9.044 30.104 0.348 21.692 6.448 42.288 13.652 63.904-8.096 0.636-14.944 1.172-21.792 1.716z" fill="#CBC9C8" /><path d="M96.952 740.396c-5.024 15.836-14.48 30.924-8.328 48.676-39.248-34.596-46.744-79.608-39.412-127.984 2.332-15.376 11.648-29.984 31.604-30.052 1.96 4.944-1.528 14.272 5.44 14.54 18.624 0.736 13.696 14.056 14.996 24.328-28.668 15.84-30.508 45.96-4.3 70.492z" fill="#FD8787" /><path d="M906.392 511.38c-20.672 9.432-36.684 25.924-58.608 34.396-72.836 28.164-155.784-16.652-176.28-90.168-16.076-57.64 6.196-115.88 55.8-149.992 5.064-3.476 11.996-5.304 12.676-13.092l5.58-1.468c69.512-11.8 154.672 57.436 166.616 125.748 0.068 5.544-1.816 11.532 3.632 15.84l-0.068-0.124c0.008 8.172 0.084 16.34 0.016 24.508-0.172 18.624 1.464 37.564-9.364 54.352z m-163.04-161.144c-1.192 6.072 3.464 11.316 8.476 16.416 16.408 16.688 36.616 27.392 58.176 35.312 18 6.612 34.208-7.408 32.548-26.948-2.848-33.432-52.94-62.664-83.288-48.444-9.08 4.26-15.748 10.728-15.912 23.664z" fill="#F2CF88" /><path d="M743.448 907.204c-3.64-16.76 6.648-21.928 20.24-25.64 72.356-19.76 125.792-64.848 167.12-125.904 6.828-10.092-3.172-22.216 3.8-32.316 16.356 5.896 22.616 19.3 25.952 34.88-4.328 8.816-4.52 17.596 0.248 26.328l-1.964 11.016c-4.06 1.92-6.5 4.216-1.856 8.12-21.768 95.484-133.016 149.408-213.54 103.516z" fill="#8A2F2F" /><path d="M906.392 511.38c10.828-16.788 9.192-35.732 9.364-54.352 0.072-8.168-0.008-16.336-0.016-24.508 5.908 6.472 3.724 14.512 3.62 21.828-0.368 27.828-0.348 55.56 6.06 82.884 0.648 2.768-1.584 4.488-2.808 6.44-19.228 30.664-48.128 54.816-64.5 85.972-9.9 18.832-13.74 43.932-18.336 66.716-34.1-1.936-67.084-13.82-101.668-11.248a292.96 292.96 0 0 0-10.324-64.564c-1.744-6.26-2.996-11.916-1.912-18.164 66.356 45.968 166.876-21.636 180.52-91.004z" fill="#CBC9C8" /><path d="M738.104 685.108c34.584-2.572 67.568 9.312 101.668 11.248 3.66 0.704 7.924-0.4 10.492 3.52-16.876 3.512-29.48 9.328-36.508 28.692-3.612 9.944-16.896 22.268-32.952 22.196-24.68-13.036-32.74-9.676-39.864 17.6-1.752 6.72-2.98 13.408-7.14 19.12-22.72 2.912-22.72 2.912-36.312 41.24-6.488-3.752-3.284-11.624-7.12-16.304 7.572-14.868 5.22-31.44 7.688-47.156 3.004-19.236 6.084-38.416 13.26-56.476 4.72-11.872 12.064-22.368 26.788-23.68z" fill="#FD8787" /><path d="M745.556 291.056l-5.58 1.468c-29.956 11.6-54.192-0.044-78.928-16.532-12.512-8.34-27.672-15.056-44.008-15.34-11.772-8.176-26.34-8.976-39.016-14.768 19.084-8.128 38.012-16.468 50.32-34.496 4.152-6.08 9.728-3.92 15.38-2.748 16.872 3.512 32.648 9.8 47.676 18.056 7.852 4.316 15.768 8.148 25.104 7.112 15.996 15.876 23.42 36.108 29.052 57.248z" fill="#8A2F2F" /><path d="M960.812 784.552c-4.768-8.732-4.58-17.512-0.248-26.328 4.592 8.732 4.552 17.504 0.248 26.328z" fill="#CE5E58" /><path d="M915.804 432.644c-5.448-4.308-3.568-10.3-3.632-15.84 4.608 4.496 3.52 10.304 3.632 15.84z" fill="#CBC9C8" /><path d="M956.992 803.688c-4.644-3.908-2.204-6.2 1.856-8.12 1.592 3.212 0.756 5.864-1.856 8.12z" fill="#CE5E58" /><path d="M427.672 114.12c4.66 17.984-4.572 19.476-19.144 20.464-18.744 1.264-19.34-7.46-20.024-22.132-0.796-17.184 5.052-20.668 21.336-21.032 19.468-0.432 20.76 8.896 17.832 22.7zM483.044 111.6c-4.188-16.604 3.864-19.228 18.984-20.136 19.848-1.2 18.192 9.62 19.072 23.02 1.044 15.904-4.348 19.584-19.916 20.172-19.456 0.736-20.484-8.808-18.14-23.056z" fill="#8A2F2F" /><path d="M733.8 787.488c4.16-5.716 5.388-12.404 7.14-19.12 7.124-27.276 15.184-30.636 39.864-17.6 14.084 26.492 11.964 54.004-5.088 72.384-7.984 8.608-17.268 13.98-28.736 9.956-12.048-4.228-14.184-15.248-14.12-26.592 0.044-6.344 0.612-12.68 0.94-19.028z" fill="#CBC9C8" /><path d="M578.024 245.88c12.676 5.792 27.244 6.592 39.016 14.768 0.192 1.256-0.02 2.788 0.628 3.732 34.52 50.24 20.584 104.576 16.74 159.424-5.084 72.62-92.72 148.904-166.692 162.328-112.684 20.44-218.572-48.652-249.392-156.356-5.488-19.168-10.94-39.048-10.664-59.592 12.704-31.132 36.372-53.376 60.752-75.028 28.464-16.06 55.304-34.984 86.772-45.636 52.744-17.852 106.776-18.98 161.26-13.748 20.66 1.984 41.064 6.66 61.58 10.108z m-263.696 202.152c0 35.152 0 35.152 35.2 35.152 3.184 0 6.416 0.372 9.54-0.068 15.86-2.216 20.756 4.424 20.54 20.3-0.604 44.556 0.064 43.824 44.796 44.752 16.508 0.348 22.036-3.74 21.62-21.056-1.044-43.64-0.148-44.532 43.848-43.5 17.28 0.404 23.352-5.068 20.732-21.572-0.492-3.108-0.068-6.352-0.068-9.536 0-35.92 0-35.92-36.4-35.928-28.548-0.004-28.548-0.004-28.548-29.104 0-35.58 0-35.808-34.864-35.516-36.02 0.3-30.996-5.032-31.456 31.192-0.48 37.64 4.724 32.98-33.696 33.46-35.976 0.448-30.68-4.912-31.244 31.424z" fill="#FD8787" /><path d="M96.952 740.396c-26.208-24.532-24.368-54.652 4.304-70.492 17.488 8.7 26.152 53.752 13.004 67.46-5.06 5.272-10.992 5.152-17.308 3.032z" fill="#CBC9C8" /><path d="M743.352 350.236c0.164-12.936 6.832-19.404 15.912-23.66 30.348-14.22 80.44 15.012 83.288 48.444 1.66 19.54-14.548 33.56-32.548 26.948-21.56-7.92-41.768-18.624-58.176-35.312-5.012-5.104-9.668-10.348-8.476-16.42zM314.328 448.032c0.564-36.336-4.732-30.976 31.248-31.424 38.42-0.48 33.216 4.18 33.696-33.46 0.464-36.224-4.564-30.892 31.456-31.192 34.86-0.292 34.864-0.064 34.864 35.516 0 29.1 0 29.1 28.548 29.104 36.4 0.008 36.4 0.008 36.4 35.928 0 3.184-0.424 6.428 0.068 9.536 2.62 16.5-3.448 21.976-20.732 21.572-43.996-1.036-44.892-0.14-43.848 43.5 0.416 17.316-5.112 21.404-21.62 21.056-44.732-0.928-45.404-0.196-44.796-44.752 0.216-15.876-4.68-22.516-20.54-20.3-3.124 0.44-6.356 0.068-9.54 0.068-35.204-0.004-35.204-0.004-35.204-35.152z" fill="#FDFDFD" /></svg>